<?xml version="1.0" standalone="no"?>
<!DOCTYPE svg PUBLIC "-//W3C//DTD SVG 20010904//EN"
 "http://www.w3.org/TR/2001/REC-SVG-20010904/DTD/svg10.dtd">
<svg version="1.0" xmlns="http://www.w3.org/2000/svg"
 width="12000.000000pt" height="12000.000000pt" viewBox="0 0 12000.000000 12000.000000"
 preserveAspectRatio="xMidYMid meet">

<g transform="translate(0.000000,12000.000000) scale(0.100000,-0.100000)"
fill="#000000" stroke="none">
<path d="M0 60000 l0 -60000 60000 0 60000 0 0 60000 0 60000 -60000 0 -60000
0 0 -60000z m61270 38980 c1050 -39 1899 -98 2825 -196 5649 -595 11104 -2420
15975 -5342 2215 -1329 4295 -2877 6210 -4622 811 -739 1811 -1739 2550 -2550
3468 -3806 6146 -8253 7883 -13090 1306 -3636 2066 -7454 2252 -11310 33 -691
40 -1008 40 -1875 0 -867 -7 -1184 -40 -1875 -309 -6422 -2204 -12675 -5513
-18190 -1329 -2215 -2877 -4295 -4622 -6210 -739 -811 -1739 -1811 -2550
-2550 -3806 -3468 -8253 -6146 -13090 -7883 -3636 -1306 -7454 -2066 -11310
-2252 -691 -33 -1008 -40 -1875 -40 -867 0 -1184 7 -1875 40 -6422 309 -12675
2204 -18190 5513 -2215 1329 -4295 2877 -6210 4622 -811 739 -1811 1739 -2550
2550 -3468 3806 -6146 8253 -7883 13090 -1306 3636 -2066 7454 -2252 11310
-33 691 -40 1008 -40 1875 0 867 7 1184 40 1875 309 6422 2204 12675 5513
18190 1329 2215 2877 4295 4622 6210 739 811 1739 1811 2550 2550 1915 1745
3995 3293 6210 4622 4871 2922 10326 4747 15975 5342 1101 117 2092 179 3345
210 257 6 1745 -4 2010 -14z"/>
<path d="M59090 97789 c-6783 -167 -13390 -2150 -19130 -5741 -6797 -4252
-12054 -10534 -15041 -17976 -2428 -6050 -3250 -12640 -2383 -19102 974 -7256
4031 -14071 8802 -19622 5060 -5888 11822 -10077 19352 -11992 6111 -1554
12519 -1554 18630 0 7530 1915 14292 6104 19352 11992 3805 4426 6534 9675
7972 15332 1398 5496 1540 11240 417 16800 -1666 8245 -6034 15703 -12409
21182 -4426 3805 -9675 6534 -15332 7972 -3069 780 -6232 1173 -9385 1164
-297 -1 -677 -5 -845 -9z m1030 -3289 l0 -1500 158 0 c202 0 830 -17 1132 -30
2281 -100 4491 -423 6675 -975 181 -46 331 -83 332 -82 1 2 708 2649 764 2858
l9 36 125 -31 c99 -24 124 -34 121 -46 -27 -91 -766 -2870 -766 -2877 0 -5
132 -47 293 -92 2134 -605 4152 -1398 6112 -2404 431 -221 959 -506 1250 -676
54 -31 73 -37 81 -28 6 7 343 588 749 1292 406 704 741 1283 744 1287 7 7 211
-113 207 -122 -2 -3 -338 -585 -747 -1295 -409 -709 -744 -1291 -744 -1294 0
-2 162 -101 360 -220 2198 -1321 4147 -2818 5995 -4604 l285 -275 1060 1059
1060 1059 83 -82 82 -83 -1059 -1060 -1059 -1060 280 -290 c1825 -1887 3400
-3950 4713 -6173 l108 -182 31 19 c84 51 2550 1472 2557 1474 5 1 36 -43 69
-98 l59 -99 -27 -17 c-15 -9 -598 -346 -1297 -749 -698 -403 -1271 -733 -1272
-734 -1 -1 18 -38 43 -81 1302 -2277 2353 -4787 3084 -7371 l82 -290 1412 377
c776 207 1427 381 1448 387 l36 10 30 -121 c17 -67 30 -122 29 -123 -1 -1
-648 -173 -1437 -384 -789 -210 -1439 -385 -1443 -389 -4 -4 30 -158 77 -342
553 -2188 876 -4397 976 -6679 13 -299 30 -929 30 -1127 l0 -153 1500 0 1500
0 0 -125 0 -125 -1500 0 -1500 0 0 -152 c0 -199 -17 -829 -30 -1128 -100
-2281 -424 -4497 -975 -6675 -46 -181 -81 -333 -77 -336 4 -4 653 -179 1442
-389 789 -211 1436 -383 1437 -384 1 -1 -12 -56 -29 -123 l-30 -121 -36 10
c-21 6 -672 180 -1447 387 l-1410 377 -79 -281 c-715 -2535 -1732 -4984 -3013
-7253 -63 -112 -111 -208 -107 -212 5 -5 587 -342 1294 -750 707 -408 1286
-743 1287 -744 5 -5 -118 -201 -126 -199 -4 1 -585 335 -1290 742 -706 408
-1286 741 -1291 741 -4 0 -56 -82 -115 -182 -1088 -1843 -2387 -3616 -3827
-5223 -291 -325 -465 -511 -837 -899 -174 -181 -317 -332 -319 -335 -1 -3 473
-481 1053 -1061 l1055 -1055 -82 -82 -83 -83 -1057 1057 -1057 1057 -233 -226
c-674 -652 -1260 -1179 -1933 -1739 -1326 -1103 -2809 -2147 -4293 -3024 -129
-76 -181 -112 -178 -122 3 -8 334 -582 734 -1276 401 -694 734 -1271 740
-1282 10 -19 2 -26 -91 -82 -56 -34 -105 -58 -108 -55 -3 4 -338 583 -744
1287 -406 704 -741 1284 -745 1289 -5 4 -100 -44 -212 -107 -2243 -1266 -4645
-2268 -7153 -2984 -203 -58 -371 -107 -373 -108 -2 -2 726 -2744 764 -2875 3
-12 -22 -22 -121 -46 -69 -17 -125 -31 -125 -30 0 7 -769 2879 -772 2881 -2 2
-152 -34 -333 -80 -2184 -552 -4394 -875 -6675 -975 -299 -13 -929 -30 -1127
-30 l-153 0 0 -1500 0 -1500 -125 0 -125 0 0 1500 0 1500 -152 0 c-199 0 -829
17 -1128 30 -2282 100 -4491 423 -6679 976 -184 46 -336 82 -338 80 -3 -3
-773 -2873 -773 -2882 0 -1 -56 13 -125 30 -99 24 -124 34 -121 46 51 178 766
2873 763 2876 -2 3 -175 54 -383 113 -2513 721 -4894 1715 -7132 2978 -112 63
-207 111 -212 107 -4 -5 -339 -585 -745 -1289 -406 -704 -741 -1283 -744
-1287 -3 -3 -52 21 -108 55 -93 56 -101 63 -91 82 6 11 339 588 740 1282 400
694 731 1268 734 1276 3 10 -49 46 -178 122 -2223 1313 -4285 2887 -6173 4713
l-290 280 -1060 -1059 -1060 -1059 -83 82 -82 83 1059 1060 1059 1060 -275
285 c-1786 1848 -3271 3782 -4604 5995 -120 198 -221 359 -226 358 -5 -1 -586
-335 -1292 -743 -706 -407 -1288 -742 -1292 -743 -5 -1 -36 43 -69 98 l-59 99
27 17 c15 9 599 346 1297 749 699 403 1272 734 1273 736 2 1 -48 94 -111 206
-1281 2269 -2307 4741 -3013 7255 -66 236 -82 282 -95 277 -9 -2 -657 -176
-1440 -384 -783 -209 -1429 -382 -1435 -384 -8 -3 -23 40 -42 117 -17 67 -30
122 -29 123 1 1 649 174 1440 385 791 211 1442 386 1447 389 4 3 -29 154 -75
335 -552 2184 -875 4394 -975 6675 -13 299 -30 929 -30 1128 l0 152 -1500 0
-1500 0 0 125 0 125 1500 0 1500 0 0 153 c0 198 17 828 30 1127 100 2282 423
4491 976 6679 52 206 81 337 75 341 -6 3 -657 178 -1448 389 -791 211 -1439
384 -1440 385 -1 1 12 56 29 123 19 77 34 120 42 117 6 -2 652 -175 1435 -384
783 -208 1431 -382 1440 -385 15 -4 29 36 100 287 720 2543 1729 4971 3008
7236 63 112 113 205 111 206 -1 2 -574 333 -1273 736 -698 403 -1282 740
-1297 749 l-27 17 59 99 c33 55 64 99 69 98 4 -1 586 -336 1292 -743 706 -408
1287 -742 1292 -743 5 -1 106 160 226 358 999 1660 2058 3125 3301 4570 415
482 758 858 1259 1379 174 181 317 332 319 335 1 3 -475 483 -1058 1066
l-1060 1060 82 82 83 83 1062 -1062 1062 -1062 233 226 c934 903 1794 1652
2773 2414 1059 825 2279 1655 3420 2329 110 65 203 121 208 125 4 3 -317 569
-714 1256 -397 687 -734 1272 -750 1299 l-28 50 102 62 c56 34 105 58 108 55
3 -4 338 -583 744 -1287 406 -704 743 -1286 750 -1294 11 -11 47 6 216 102
2239 1263 4620 2257 7133 2978 208 59 381 111 384 114 4 3 -703 2673 -764
2885 -3 12 22 22 121 46 l125 31 9 -36 c83 -314 764 -2857 765 -2859 2 -1 153
36 337 82 1993 504 4009 817 6089 946 374 23 815 40 1323 52 l537 12 0 1498 0
1498 125 0 125 0 0 -1500z"/>
<path d="M59155 92389 c-2177 -57 -4354 -336 -6476 -829 -329 -76 -927 -225
-935 -232 -2 -3 77 -308 176 -678 99 -371 179 -674 177 -675 -1 -1 -57 -16
-125 -32 l-122 -31 -7 27 c-30 124 -351 1312 -355 1316 -5 6 -341 -87 -688
-190 -2298 -681 -4510 -1613 -6612 -2787 -158 -89 -286 -164 -284 -167 2 -3
154 -267 338 -586 184 -319 340 -589 346 -601 10 -18 3 -24 -71 -69 -45 -27
-91 -55 -103 -62 -20 -13 -33 8 -370 592 -192 333 -352 605 -357 605 -26 0
-965 -579 -1431 -882 -1713 -1118 -3473 -2531 -4871 -3910 l-210 -207 493
-493 492 -493 -82 -83 -83 -82 -493 492 -493 493 -207 -210 c-793 -803 -1679
-1822 -2423 -2785 -792 -1024 -1484 -2037 -2156 -3155 -170 -282 -219 -373
-210 -381 7 -6 273 -161 592 -344 319 -184 588 -339 597 -345 15 -10 11 -21
-43 -111 -32 -54 -63 -98 -67 -97 -5 1 -278 157 -607 347 -329 190 -601 343
-606 341 -4 -3 -77 -130 -162 -283 -1189 -2131 -2123 -4356 -2807 -6687 -102
-350 -173 -606 -168 -609 1 -2 305 -83 673 -181 369 -98 671 -178 672 -179 1
-1 -12 -56 -29 -123 l-30 -121 -31 9 c-213 61 -1319 350 -1323 346 -9 -8 -152
-582 -234 -936 -453 -1951 -719 -3899 -810 -5931 -13 -292 -30 -926 -30 -1122
l0 -148 705 0 705 0 0 -125 0 -125 -705 0 -705 0 0 -147 c0 -197 17 -831 30
-1123 88 -1971 340 -3854 771 -5765 71 -317 260 -1078 270 -1089 6 -7 1034
259 1326 343 l31 9 30 -121 c17 -67 30 -122 29 -123 -1 -1 -303 -81 -672 -179
-368 -98 -672 -180 -674 -182 -6 -4 41 -176 146 -538 685 -2358 1628 -4612
2830 -6767 85 -153 158 -280 162 -283 5 -2 277 151 606 341 329 190 602 346
607 347 4 1 35 -43 67 -97 54 -90 58 -101 43 -111 -9 -6 -278 -161 -597 -345
-319 -183 -585 -338 -592 -344 -19 -17 456 -801 879 -1450 1117 -1712 2516
-3455 3907 -4869 l205 -208 496 496 495 495 83 -82 82 -83 -495 -495 -496
-496 213 -210 c818 -805 1824 -1681 2788 -2425 1024 -791 2037 -1484 3154
-2155 l369 -222 132 226 c72 125 231 401 354 615 216 374 225 387 245 374 12
-7 58 -35 103 -62 45 -27 80 -51 79 -55 -2 -3 -159 -276 -350 -607 -191 -332
-345 -607 -342 -612 4 -5 131 -79 284 -164 2102 -1173 4308 -2103 6602 -2782
297 -88 682 -196 686 -192 3 2 292 1079 355 1318 l9 36 125 -31 c99 -24 124
-34 121 -46 -64 -223 -357 -1343 -353 -1347 8 -8 586 -152 936 -233 1951 -453
3899 -719 5931 -810 292 -13 926 -30 1123 -30 l147 0 0 705 0 705 125 0 125 0
0 -705 0 -705 148 0 c196 0 830 17 1122 30 1971 88 3854 340 5765 771 313 71
1078 260 1089 270 6 5 -262 1041 -350 1349 -3 12 22 22 121 46 l125 31 9 -36
c74 -282 353 -1316 355 -1319 6 -5 243 60 611 168 2331 684 4556 1618 6687
2807 153 85 280 159 284 164 3 5 -151 280 -342 612 -191 331 -348 604 -350
607 -1 4 34 28 79 55 45 27 91 55 103 62 20 13 29 0 245 -374 123 -214 282
-490 354 -615 l132 -226 369 222 c1117 671 2130 1364 3154 2155 963 744 1982
1630 2785 2423 l210 207 -498 498 -497 498 82 83 83 82 498 -497 498 -498 207
210 c793 803 1679 1822 2423 2785 641 829 1212 1645 1785 2551 144 227 595
972 591 975 -1 1 -276 160 -612 354 -335 194 -611 353 -612 354 -5 5 118 201
126 199 4 -1 237 -134 517 -296 280 -161 552 -319 605 -349 l97 -56 160 287
c1190 2130 2127 4361 2812 6696 128 437 173 606 163 615 -4 4 -309 87 -678
185 -368 98 -671 178 -672 179 -1 1 12 56 29 123 l30 121 51 -15 c29 -7 336
-90 682 -182 549 -147 631 -166 637 -152 11 24 179 702 243 981 446 1946 705
3862 795 5870 13 292 30 926 30 1123 l0 147 -705 0 -705 0 0 125 0 125 705 0
705 0 0 148 c0 196 -17 830 -30 1122 -88 1971 -340 3853 -771 5765 -100 446
-270 1114 -282 1110 -7 -3 -284 -77 -617 -165 -333 -89 -635 -169 -672 -179
l-66 -19 -30 121 c-17 67 -30 122 -29 123 1 1 304 81 672 179 369 98 673 181
678 185 4 3 -22 109 -57 236 -636 2269 -1535 4502 -2653 6584 -159 295 -425
770 -433 770 -3 0 -275 -156 -605 -346 -329 -190 -602 -346 -607 -347 -4 -1
-35 43 -67 97 -54 90 -58 101 -43 111 9 6 278 161 597 345 319 183 586 339
593 345 28 26 -691 1185 -1181 1905 -1086 1593 -2333 3119 -3601 4408 l-210
213 -496 -496 -495 -495 -83 82 -82 83 495 495 496 496 -208 205 c-1414 1391
-3157 2790 -4869 3907 -546 356 -1432 898 -1445 884 -4 -4 -161 -275 -349
-602 -189 -327 -346 -598 -349 -602 -4 -5 -185 96 -208 116 -1 1 155 274 347
606 191 333 346 608 344 611 -2 4 -129 77 -282 162 -2131 1189 -4356 2123
-6687 2807 -404 118 -605 173 -612 166 -5 -4 -322 -1178 -356 -1317 l-7 -27
-122 31 c-68 16 -124 31 -125 32 -2 1 78 305 177 675 99 370 177 677 173 681
-10 8 -793 202 -1088 268 -1911 431 -3794 683 -5765 771 -295 13 -926 30
-1127 30 l-153 0 0 -705 0 -705 -125 0 -125 0 0 705 0 705 -212 -2 c-117 0
-343 -5 -503 -9z m1570 -5399 c853 -25 1639 -81 2440 -176 5593 -659 10840
-3051 15010 -6843 618 -562 1345 -1293 1903 -1914 2387 -2653 4228 -5757 5406
-9117 2034 -5795 2034 -12095 0 -17890 -1178 -3360 -3019 -6464 -5406 -9117
-558 -621 -1285 -1352 -1903 -1914 -2677 -2434 -5819 -4309 -9225 -5503 -5795
-2034 -12095 -2034 -17890 0 -3406 1194 -6548 3069 -9225 5503 -618 562 -1345
1293 -1903 1914 -2387 2653 -4228 5757 -5406 9117 -2034 5795 -2034 12095 0
17890 1178 3360 3019 6464 5406 9117 558 621 1285 1352 1903 1914 4289 3900
9715 6317 15475 6894 1128 113 2327 157 3415 125z"/>
<path d="M59390 86594 c-1121 -35 -2005 -105 -2990 -240 -5307 -724 -10281
-3041 -14260 -6644 -607 -550 -1260 -1201 -1805 -1800 -2955 -3248 -5053
-7155 -6125 -11405 -413 -1636 -665 -3272 -765 -4965 -33 -563 -39 -823 -39
-1545 0 -722 6 -982 39 -1545 321 -5435 2278 -10607 5633 -14885 899 -1145
1938 -2264 3012 -3240 3248 -2955 7155 -5053 11405 -6125 1636 -413 3272 -665
4965 -765 563 -33 823 -39 1545 -39 722 0 982 6 1545 39 5435 321 10607 2278
14885 5633 1662 1304 3193 2835 4497 4497 2302 2936 3957 6307 4868 9920 413
1636 665 3272 765 4965 33 563 39 823 39 1545 0 722 -6 982 -39 1545 -321
5435 -2278 10607 -5633 14885 -899 1145 -1938 2264 -3012 3240 -3248 2955
-7155 5053 -11405 6125 -1796 453 -3526 703 -5465 790 -227 11 -1446 21 -1660
14z m-5740 -22439 l0 -1045 -2320 0 -2320 0 0 -1250 0 -1250 2320 0 2320 0 0
-1015 0 -1015 -2320 0 -2320 0 0 -1250 0 -1250 2320 0 2320 0 0 -1045 0 -1045
-3365 0 -3365 0 0 5605 0 5605 3365 0 3365 0 0 -1045z m-12595 -2663 l2390
-3692 3 3695 2 3695 1070 0 1070 0 0 -5600 0 -5600 -1022 2 -1021 3 -2416
3663 -2416 3662 -3 -3665 -2 -3665 -1040 0 -1040 0 0 5600 0 5600 1017 -2
1017 -3 2391 -3693z m18657 935 c1011 -1519 2011 -3030 2224 -3357 735 -1131
1672 -2567 2071 -3175 908 -1384 1243 -1897 1243 -1901 0 -2 -539 -4 -1198 -4
l-1198 0 -1279 1959 c-704 1077 -1282 1957 -1286 1955 -3 -1 -594 -883 -1314
-1958 l-1309 -1956 -1198 0 c-659 0 -1198 2 -1198 4 0 3 837 1284 1861 2848
1024 1564 1870 2859 1882 2879 l20 35 -1776 2712 c-978 1491 -1777 2714 -1777
2717 0 3 539 5 1198 5 l1197 0 1837 -2763z m5332 2751 c-21 -37 -2648 -4035
-2658 -4046 -9 -9 -146 184 -634 898 l-622 910 757 1125 758 1125 1203 0 c960
0 1202 -3 1196 -12z m3566 -3641 c0 -2488 3 -3680 10 -3737 85 -683 513 -1275
1140 -1577 472 -227 1058 -254 1560 -71 692 250 1202 880 1305 1608 13 91 15
588 15 3768 l0 3662 1045 0 1045 0 -2 -3717 c-4 -4075 1 -3762 -59 -4103 -77
-439 -244 -896 -475 -1301 -504 -884 -1336 -1560 -2319 -1884 -247 -82 -537
-142 -845 -177 -176 -19 -679 -16 -865 6 -674 79 -1282 305 -1845 687 -904
613 -1540 1584 -1734 2649 -65 356 -60 30 -63 4128 l-3 3712 1045 0 1045 0 0
-3653z m11120 3628 c396 -54 702 -152 1080 -347 407 -210 663 -396 1074 -783
133 -125 383 -381 516 -528 l44 -48 -35 -33 c-19 -19 -364 -320 -767 -669
l-733 -636 -88 117 c-346 459 -713 763 -1076 892 -188 66 -350 87 -554 70
-258 -21 -389 -74 -544 -222 -161 -154 -212 -266 -211 -468 0 -87 5 -135 23
-200 33 -127 100 -259 163 -326 156 -166 1075 -983 1668 -1484 302 -255 597
-512 782 -681 69 -64 182 -164 250 -223 67 -59 151 -133 186 -163 78 -68 257
-264 364 -398 402 -502 633 -1048 703 -1660 32 -282 17 -719 -36 -994 -113
-591 -362 -1066 -778 -1482 -554 -554 -1238 -840 -2154 -900 -203 -14 -546 -6
-732 16 -671 79 -1243 315 -1750 721 -137 110 -377 343 -502 489 -242 280
-516 692 -687 1032 l-36 72 58 34 c559 336 1673 997 1680 997 4 0 41 -59 82
-132 94 -168 264 -423 372 -558 323 -403 655 -632 1038 -716 126 -28 407 -26
546 4 265 57 500 175 647 325 120 123 205 259 253 407 25 78 28 98 28 240 0
129 -4 171 -23 250 -38 152 -88 273 -171 415 -101 169 -488 531 -1330 1240
-638 538 -1001 865 -1406 1270 -398 397 -563 588 -750 865 -121 180 -192 303
-274 473 -84 176 -130 300 -175 470 -57 218 -70 323 -69 577 0 241 14 370 60
574 114 508 426 1025 829 1373 528 456 1091 690 1800 747 107 8 524 -4 635
-19z"/>
</g>
</svg>
